{"asset":{"version":"2.0","generator":"Blockbench 5.0.4 glTF exporter"},"scenes":[{"nodes":[0,2],"name":"blockbench_export"}],"scene":0,"nodes":[{"translation":[0,-0.125,0],"name":"cuboid","mesh":0},{"rotation":[0,0,6.379311725152493e-16,1],"translation":[0,0.25,0.1875],"name":"bone"},{"name":"armature","children":[1],"skin":0}],"bufferViews":[{"buffer":0,"byteOffset":0,"byteLength":240,"target":34962,"byteStride":12},{"buffer":0,"byteOffset":240,"byteLength":240,"target":34962,"byteStride":12},{"buffer":0,"byteOffset":480,"byteLength":160,"target":34962,"byteStride":8},{"buffer":0,"byteOffset":640,"byteLength":60,"target":34963},{"buffer":0,"byteOffset":700,"byteLength":64},{"buffer":0,"byteOffset":764,"byteLength":72},{"buffer":0,"byteOffset":836,"byteLength":288}],"buffers":[{"byteLength":1124,"uri":"data:application/octet-stream;base64,"}],"accessors":[{"bufferView":0,"componentType":5126,"count":20,"max":[0.3125,0.375,0.1875],"min":[-0.3125,0.125,-0.1875],"type":"VEC3"},{"bufferView":1,"componentType":5126,"count":20,"max":[1,0,1],"min":[-1,-1,-1],"type":"VEC3"},{"bufferView":2,"componentType":5126,"count":20,"max":[0.65625,0.4375],"min":[0,0],"type":"VEC2"},{"bufferView":3,"componentType":5123,"count":30,"max":[19],"min":[0],"type":"SCALAR"},{"bufferView":4,"componentType":5126,"count":1,"max":[1,-1.2758623291639847e-15,0,0,1.2758623291639847e-15,1,0,0,0,0,1,0,-3.1896558229099618e-16,-0.25,-0.1875,1],"min":[1,-1.2758623291639847e-15,0,0,1.2758623291639847e-15,1,0,0,0,0,1,0,-3.1896558229099618e-16,-0.25,-0.1875,1],"type":"MAT4"},{"bufferView":5,"componentType":5126,"count":18,"max":[3.5],"min":[0],"type":"SCALAR"},{"bufferView":6,"componentType":5126,"count":18,"max":[0.9807852506637573,6.256734861044794e-16,6.3793116458199235e-16,1],"min":[0,0,-1.2445419359804973e-16,-0.19509032368659973],"type":"VEC4"}],"materials":[{"pbrMetallicRoughness":{"metallicFactor":0,"roughnessFactor":1,"baseColorTexture":{"index":0}},"alphaMode":"MASK","alphaCutoff":0.05,"doubleSided":true}],"textures":[{"sampler":0,"source":0,"name":"ChestBase"}],"samplers":[{"magFilter":9728,"minFilter":9728,"wrapS":33071,"wrapT":33071}],"images":[{"mimeType":"image/png","uri":"data:image/png;base64,"}],"meshes":[{"primitives":[{"mode":4,"attributes":{"POSITION":0,"NORMAL":1,"TEXCOORD_0":2},"indices":3,"material":0}]}],"skins":[{"inverseBindMatrices":4,"joints":[1],"skeleton":1}],"animations":[{"name":"animation","samplers":[{"input":5,"output":6,"interpolation":"LINEAR"}],"channels":[{"sampler":0,"target":{"node":1,"path":"rotation"}}]}]}